<svg width="48" height="48" viewBox="0 0 48 48" fill="none" xmlns="http://www.w3.org/2000/svg">
<path d="M14 28C10.68 28 8 30.68 8 34C8 36.62 5.68 38 4 38C5.84 40.44 8.98 42 12 42C16.42 42 20 38.42 20 34C20 30.68 17.32 28 14 28ZM41.42 9.26L38.74 6.58C38.555 6.39457 38.3352 6.24745 38.0933 6.14707C37.8513 6.04669 37.5919 5.99503 37.33 5.99503C37.0681 5.99503 36.8087 6.04669 36.5667 6.14707C36.3248 6.24745 36.105 6.39457 35.92 6.58L18 24.5L23.5 30L41.42 12.08C42.2 11.3 42.2 10.04 41.42 9.26Z" fill="#333333"/>
</svg>
