<svg width="48" height="48" viewBox="0 0 48 48" fill="none" xmlns="http://www.w3.org/2000/svg">
<path d="M24 4C12.98 4 4 12.98 4 24C4 35.02 12.98 44 24 44C26.76 44 29 41.76 29 39C29 37.78 28.54 36.6 27.72 35.66C27.56 35.46 27.46 35.24 27.46 35C27.46 34.44 27.9 34 28.46 34H32C38.62 34 44 28.62 44 22C44 12.08 35.02 4 24 4ZM35 26C33.34 26 32 24.66 32 23C32 21.34 33.34 20 35 20C36.66 20 38 21.34 38 23C38 24.66 36.66 26 35 26ZM29 18C27.34 18 26 16.66 26 15C26 13.34 27.34 12 29 12C30.66 12 32 13.34 32 15C32 16.66 30.66 18 29 18ZM10 23C10 21.34 11.34 20 13 20C14.66 20 16 21.34 16 23C16 24.66 14.66 26 13 26C11.34 26 10 24.66 10 23ZM22 15C22 16.66 20.66 18 19 18C17.34 18 16 16.66 16 15C16 13.34 17.34 12 19 12C20.66 12 22 13.34 22 15Z" fill="#333333"/>
</svg>
