<svg width="48" height="48" viewBox="0 0 48 48" fill="none" xmlns="http://www.w3.org/2000/svg">
<g clip-path="url(#clip0_816_286)">
<path d="M42.4 24.8V29.6H52V24.8H42.4ZM37.6 40.664C39.904 42.368 42.904 44.624 45.28 46.4C46.24 45.128 47.2 43.832 48.16 42.56C45.784 40.784 42.784 38.528 40.48 36.8C39.52 38.096 38.56 39.392 37.6 40.664ZM48.16 11.84C47.2 10.568 46.24 9.272 45.28 8C42.904 9.776 39.904 12.032 37.6 13.76C38.56 15.032 39.52 16.328 40.48 17.6C42.784 15.872 45.784 13.64 48.16 11.84ZM8.8 20C6.16 20 4 22.16 4 24.8V29.6C4 32.24 6.16 34.4 8.8 34.4H11.2V44H16V34.4H18.4L30.4 41.6V12.8L18.4 20H8.8ZM36.4 27.2C36.4 24.008 35.008 21.128 32.8 19.16V35.216C35.008 33.272 36.4 30.392 36.4 27.2Z" fill="#333333"/>
</g>
<defs>
<clipPath id="clip0_816_286">
<rect width="48" height="48" fill="white"/>
</clipPath>
</defs>
</svg>
